<?xml version="1.0" encoding="UTF-8"?>
<svg id="Layer_1" xmlns="http://www.w3.org/2000/svg" version="1.1" viewBox="763 235 160 160">
  <!-- Generator: Adobe Illustrator 29.7.0, SVG Export Plug-In . SVG Version: 2.1.1 Build 138)  -->
  <defs>
    <style>
      .st0 {
        fill: #2596d1;
      }

      .st1 {
        fill: #7dcaf7;
      }

      .st2 {
        font-family: MyriadPro-Regular, 'Myriad Pro';
        font-size: 30px;
      }
    </style>
  </defs>
  <!-- White rectangle in bottom right corner -->
  <rect x="800" y="300" width="80" height="48" fill="white" rx="4" ry="4"/>
  <g id="cat_ori">
    <path class="st0" d="M904.8,321.3c-.7-2.4-3.6-7.9-3.7-9.4-.3-3.4.9-9.1,1.1-12.7.4-9.5.2-27.9-4.1-36.3-1.7-3.3-3.3-4.4-5.8-3.6-.8.2-1.6.6-2.5,1.2-7.5,4.7-17.2,15.9-23.1,22.8-1,1.1-2.7,4.2-4,4.3-2.1.3-4.2-.3-6.2-.4-9.6-.2-19.3,0-28.9.3-3.8-6.3-7.9-12.4-12.8-17.9-3-3.4-9-10.3-14-9.1-1.2.3-2.2,1-3.2,2.3-4.5,5.9-6.9,22.6-7.4,30.2-.3,4,.3,11-.4,14.4-.3,1.5-3.2,5.3-4,7-6.8,13.7-9.9,25-3.8,39.6.7,1.7,2.1,3.7,2.8,5.7,16.9,10,38.4,15.9,61.9,15.9s39.1-4.5,54.8-12.1c.7-2.2,2.2-5,2.7-6.7,3.6-11.2,4.1-24.2.8-35.5ZM824,336.6c-9.5,8.7-20.4,0-19.1-11.6.6-5.1,6.2-11.1,11.3-11.5,12.2-1,16.4,15.2,7.8,23ZM877.3,333.4c-6.6,14.7-27.5,10.9-24.7-6.8.8-5.3,6.5-10.6,11.8-11.3,9.5-1.3,16.9,9.2,12.9,18.1Z"/>
    <path class="st0" d="M860,318.1c5.7-1.2,6.8,6.4,5.3,10.5-3.4,9.6-12.4,4.8-10.3-4.4.5-2.2,2.5-5.6,4.9-6.1Z"/>
    <path class="st0" d="M814.5,317.1c7.1-1.2,8.1,11.5,1.9,14.3-8.2,3.7-8.8-13.2-1.9-14.3Z"/>
  </g>
</svg>